<svg width="31" height="31" viewBox="0 0 31 31" fill="none" xmlns="http://www.w3.org/2000/svg">
<path d="M29.8718 12.6017H28.6848V12.5405H15.4227V18.4348H23.7506C22.5356 21.866 19.2709 24.3291 15.4227 24.3291C10.54 24.3291 6.58129 20.3703 6.58129 15.4876C6.58129 10.605 10.54 6.64623 15.4227 6.64623C17.6765 6.64623 19.727 7.49648 21.2882 8.88532L25.4562 4.71733C22.8244 2.26457 19.3041 0.751953 15.4227 0.751953C7.28492 0.751953 0.687012 7.34986 0.687012 15.4876C0.687012 23.6254 7.28492 30.2233 15.4227 30.2233C23.5605 30.2233 30.1584 23.6254 30.1584 15.4876C30.1584 14.4996 30.0567 13.5352 29.8718 12.6017Z" fill="#FFC107"/>
<path d="M2.38599 8.62898L7.2274 12.1795C8.5374 8.93622 11.71 6.64629 15.4227 6.64629C17.6765 6.64629 19.727 7.49654 21.2882 8.88538L25.4562 4.71739C22.8244 2.26463 19.304 0.752014 15.4227 0.752014C9.76268 0.752014 4.85422 3.94745 2.38599 8.62898Z" fill="#FF3D00"/>
<path d="M15.4227 30.2234C19.2289 30.2234 22.6873 28.7668 25.3022 26.3981L20.7415 22.5388C19.262 23.6594 17.423 24.3292 15.4227 24.3292C11.5899 24.3292 8.33552 21.8852 7.10951 18.4747L2.3042 22.177C4.74296 26.9492 9.69562 30.2234 15.4227 30.2234Z" fill="#4CAF50"/>
<path d="M29.8717 12.6017H28.6847V12.5406H15.4226V18.4349H23.7505C23.167 20.0831 22.1067 21.5043 20.7392 22.5395C20.74 22.5388 20.7407 22.5388 20.7415 22.538L25.3022 26.3973C24.9794 26.6905 30.1583 22.8556 30.1583 15.4877C30.1583 14.4997 30.0566 13.5352 29.8717 12.6017Z" fill="#1976D2"/>
</svg>
