<svg width="40" height="40" viewBox="0 0 40 40" fill="none" xmlns="http://www.w3.org/2000/svg">
<path d="M20 8C19.4926 8 19.006 7.79845 18.6472 7.43968C18.2885 7.08092 18.0869 6.59433 18.0869 6.08696V1.91304C18.0869 1.40567 18.2885 0.919083 18.6472 0.560317C19.006 0.201552 19.4926 0 20 0C20.5073 0 20.9939 0.201552 21.3527 0.560317C21.7114 0.919083 21.913 1.40567 21.913 1.91304V6.08696C21.913 6.59433 21.7114 7.08092 21.3527 7.43968C20.9939 7.79845 20.5073 8 20 8Z" fill="black"/>
<path d="M20 40C19.4926 40 19.006 39.7984 18.6472 39.4397C18.2885 39.0809 18.0869 38.5943 18.0869 38.087V33.913C18.0869 33.4057 18.2885 32.9191 18.6472 32.5603C19.006 32.2016 19.4926 32 20 32C20.5073 32 20.9939 32.2016 21.3527 32.5603C21.7114 32.9191 21.913 33.4057 21.913 33.913V38.087C21.913 38.5943 21.7114 39.0809 21.3527 39.4397C20.9939 39.7984 20.5073 40 20 40Z" fill="black"/>
<path d="M29.8381 12.0748C29.4598 12.0748 29.0901 11.9626 28.7755 11.7524C28.461 11.5423 28.2158 11.2436 28.071 10.8941C27.9262 10.5447 27.8883 10.1601 27.9619 9.78907C28.0356 9.41804 28.2177 9.07719 28.4851 8.8096L31.4364 5.85829C31.7967 5.50733 32.2808 5.3124 32.7838 5.31572C33.2867 5.31903 33.7682 5.52031 34.1239 5.87599C34.4796 6.23167 34.6808 6.71312 34.6842 7.21612C34.6875 7.71912 34.4925 8.20318 34.1416 8.56351L31.1903 11.5148C31.0129 11.6926 30.8021 11.8336 30.5701 11.9297C30.338 12.0258 30.0893 12.0751 29.8381 12.0748V12.0748Z" fill="black"/>
<path d="M7.21017 34.7026C6.83179 34.7026 6.46192 34.5903 6.14734 34.3801C5.83276 34.1698 5.58759 33.871 5.44286 33.5214C5.29812 33.1717 5.2603 32.7871 5.3342 32.416C5.4081 32.0449 5.59038 31.704 5.858 31.4365L8.8093 28.4852C8.98607 28.3037 9.19712 28.1592 9.43022 28.0599C9.66331 27.9607 9.91379 27.9087 10.1671 27.907C10.4205 27.9054 10.6716 27.954 10.906 28.0502C11.1404 28.1464 11.3533 28.2882 11.5325 28.4673C11.7116 28.6464 11.8534 28.8594 11.9496 29.0938C12.0457 29.3281 12.0944 29.5793 12.0927 29.8326C12.0911 30.086 12.0391 30.3364 11.9398 30.5695C11.8406 30.8026 11.696 31.0137 11.5145 31.1904L8.56322 34.1418C8.38575 34.3198 8.17486 34.461 7.94266 34.5572C7.71046 34.6535 7.46153 34.7029 7.21017 34.7026V34.7026Z" fill="black"/>
<path d="M38.087 21.913H33.913C33.4057 21.913 32.9191 21.7114 32.5603 21.3527C32.2016 20.9939 32 20.5073 32 20C32 19.4926 32.2016 19.006 32.5603 18.6472C32.9191 18.2885 33.4057 18.0869 33.913 18.0869H38.087C38.5943 18.0869 39.0809 18.2885 39.4397 18.6472C39.7984 19.006 40 19.4926 40 20C40 20.5073 39.7984 20.9939 39.4397 21.3527C39.0809 21.7114 38.5943 21.913 38.087 21.913Z" fill="black"/>
<path d="M6.08696 21.913H1.91304C1.40567 21.913 0.919083 21.7114 0.560317 21.3527C0.201552 20.9939 0 20.5073 0 20C0 19.4926 0.201552 19.006 0.560317 18.6472C0.919083 18.2885 1.40567 18.0869 1.91304 18.0869H6.08696C6.59433 18.0869 7.08092 18.2885 7.43968 18.6472C7.79845 19.006 8 19.4926 8 20C8 20.5073 7.79845 20.9939 7.43968 21.3527C7.08092 21.7114 6.59433 21.913 6.08696 21.913Z" fill="black"/>
<path d="M32.7898 34.7026C32.5385 34.7029 32.2895 34.6535 32.0573 34.5572C31.8251 34.461 31.6143 34.3198 31.4368 34.1418L28.4855 31.1905C28.1345 30.8301 27.9396 30.3461 27.9429 29.8431C27.9462 29.3401 28.1475 28.8586 28.5032 28.5029C28.8589 28.1473 29.3403 27.946 29.8433 27.9427C30.3463 27.9394 30.8304 28.1343 31.1907 28.4852L34.142 31.4365C34.4096 31.704 34.5919 32.0449 34.6658 32.416C34.7397 32.7871 34.7019 33.1718 34.5572 33.5214C34.4124 33.871 34.1673 34.1698 33.8527 34.3801C33.5381 34.5903 33.1682 34.7026 32.7898 34.7026V34.7026Z" fill="black"/>
<path d="M10.162 12.0748C9.91083 12.0753 9.66203 12.0261 9.42996 11.93C9.19788 11.8339 8.98713 11.6928 8.80984 11.5148L5.85854 8.56351C5.50757 8.20318 5.31265 7.71912 5.31596 7.21612C5.31927 6.71312 5.52056 6.23167 5.87624 5.87599C6.23192 5.52031 6.71337 5.31903 7.21636 5.31572C7.71936 5.3124 8.20342 5.50733 8.56375 5.85829L11.5151 8.8096C11.7824 9.07719 11.9645 9.41804 12.0382 9.78907C12.1119 10.1601 12.0739 10.5447 11.9291 10.8941C11.7843 11.2436 11.5391 11.5423 11.2246 11.7524C10.9101 11.9626 10.5403 12.0748 10.162 12.0748V12.0748Z" fill="black"/>
<path d="M19.9999 28.8695C18.2457 28.8695 16.5309 28.3493 15.0723 27.3747C13.6137 26.4001 12.4768 25.0149 11.8055 23.3942C11.1342 21.7735 10.9586 19.9901 11.3008 18.2696C11.643 16.549 12.4878 14.9686 13.7282 13.7282C14.9686 12.4878 16.549 11.643 18.2696 11.3008C19.9901 10.9586 21.7735 11.1342 23.3942 11.8055C25.0149 12.4768 26.4001 13.6137 27.3747 15.0723C28.3493 16.5309 28.8695 18.2457 28.8695 19.9999C28.8667 22.3514 27.9314 24.6059 26.2686 26.2686C24.6059 27.9314 22.3514 28.8667 19.9999 28.8695V28.8695Z" fill="black"/>
</svg>
